<svg xmlns="http://www.w3.org/2000/svg"><symbol viewBox="0 0 24 24" id="icon-arrow-down"><title>arrow-down</title> <path d="M4 12l1.41 1.41L11 7.83V20h2V7.83l5.58 5.59L20 12l-8-8-8 8z"/> </symbol><symbol viewBox="0 0 24 24" id="icon-arrow-up"><title>arrow-up</title> <path d="M20 12l-1.41-1.41L13 16.17V4h-2v12.17l-5.58-5.59L4 12l8 8 8-8z"/> </symbol><symbol viewBox="0 0 1024 1024" id="icon-arrow"><title>arrow</title> <path d="M504.501 990.901l307.2-307.2c9.997-9.997 9.997-26.206 0-36.203-9.998-9.998-26.206-9.998-36.205 0l-263.496 263.498v-834.195c0-14.138-11.461-25.6-25.6-25.6s-25.6 11.462-25.6 25.6v834.195l-263.499-263.496c-9.997-9.998-26.206-9.998-36.203 0-4.998 4.998-7.498 11.549-7.498 18.101s2.499 13.102 7.499 18.101l307.2 307.2c9.997 9.998 26.205 9.998 36.202 0z"/> </symbol><symbol viewBox="0 0 24 24" id="icon-chevron-left"><title>chevron-left</title> <path d="M15.41 7.41L14 6l-6 6 6 6 1.41-1.41L10.83 12z"/> </symbol><symbol viewBox="0 0 24 24" id="icon-chevron-right"><title>chevron-right</title> <path d="M10 6L8.59 7.41 13.17 12l-4.58 4.59L10 18l6-6z"/> </symbol><symbol viewBox="0 0 1024 1024" id="icon-chevron"><title>chevron</title> <path d="M716.8 1024c6.552 0 13.102-2.499 18.101-7.499 9.998-9.997 9.998-26.206 0-36.203l-442.698-442.698 442.698-442.699c9.998-9.997 9.998-26.206 0-36.203s-26.206-9.998-36.203 0l-460.8 460.8c-9.998 9.997-9.998 26.206 0 36.203l460.8 460.8c5 5 11.55 7.499 18.102 7.499z"/> </symbol><symbol viewBox="0 0 24 24" id="icon-event"><title>event</title> <path d="M17 12h-5v5h5v-5zM16 1v2H8V1H6v2H5c-1.11 0-1.99.9-1.99 2L3 19c0 1.1.89 2 2 2h14c1.1 0 2-.9 2-2V5c0-1.1-.9-2-2-2h-1V1h-2zm3 18H5V8h14v11z"/> </symbol><symbol viewBox="0 0 24 24" id="icon-group"><title>group</title> <path d="M16 11c1.66 0 2.99-1.34 2.99-3S17.66 5 16 5c-1.66 0-3 1.34-3 3s1.34 3 3 3zm-8 0c1.66 0 2.99-1.34 2.99-3S9.66 5 8 5C6.34 5 5 6.34 5 8s1.34 3 3 3zm0 2c-2.33 0-7 1.17-7 3.5V19h14v-2.5c0-2.33-4.67-3.5-7-3.5zm8 0c-.29 0-.62.02-.97.05 1.16.84 1.97 1.97 1.97 3.45V19h6v-2.5c0-2.33-4.67-3.5-7-3.5z"/> </symbol><symbol viewBox="0 0 1024 1024" id="icon-sorting"><title>sorting</title> <path fill="#17B" d="M453.301 749.899c-9.997-9.997-26.206-9.997-36.203 0l-161.098 161.098v-885.397c0-14.138-11.462-25.6-25.6-25.6s-25.6 11.462-25.6 25.6v885.397l-161.099-161.098c-9.997-9.997-26.206-9.997-36.203 0s-9.998 26.206 0 36.203l204.8 204.8c5 4.998 11.55 7.498 18.102 7.498s13.102-2.499 18.101-7.499l204.8-204.8c9.998-9.997 9.998-26.205 0-36.202z"/> <path d="M691.2 256h-102.4c-14.139 0-25.6-11.462-25.6-25.6v-102.4c0-14.138 11.461-25.6 25.6-25.6h102.4c14.139 0 25.6 11.462 25.6 25.6v102.4c0 14.138-11.461 25.6-25.6 25.6zM614.4 204.8h51.2v-51.2h-51.2v51.2z"/> <path d="M793.6 460.8h-204.8c-14.139 0-25.6-11.462-25.6-25.6v-102.4c0-14.138 11.461-25.6 25.6-25.6h204.8c14.139 0 25.6 11.462 25.6 25.6v102.4c0 14.138-11.461 25.6-25.6 25.6zM614.4 409.6h153.6v-51.2h-153.6v51.2z"/> <path d="M896 665.6h-307.2c-14.139 0-25.6-11.461-25.6-25.6v-102.4c0-14.139 11.461-25.6 25.6-25.6h307.2c14.139 0 25.6 11.461 25.6 25.6v102.4c0 14.139-11.461 25.6-25.6 25.6zM614.4 614.4h256v-51.2h-256v51.2z"/> <path d="M998.4 870.4h-409.6c-14.139 0-25.6-11.461-25.6-25.6v-102.4c0-14.139 11.461-25.6 25.6-25.6h409.6c14.139 0 25.6 11.461 25.6 25.6v102.4c0 14.139-11.461 25.6-25.6 25.6zM614.4 819.2h358.4v-51.2h-358.4v51.2z"/> </symbol></svg>